<svg xmlns="http://www.w3.org/2000/svg" width="282.046" height="282.623" viewBox="0 0 282.046 282.623">
  <g id="noun-ra-4438208" transform="translate(-10.004 -10)">
    <!-- circle -->
    <!-- <path id="Path_372" data-name="Path 372" d="M22.5,118.21c0,52.775,42.808,95.714,95.423,95.714s95.423-42.939,95.423-95.714S170.539,22.5,117.923,22.5,22.5,65.435,22.5,118.21Zm183.907,0c0,48.938-39.694,88.753-88.484,88.753S29.44,167.148,29.44,118.21s39.694-88.753,88.484-88.753S206.407,69.272,206.407,118.21Z" transform="translate(33.103 33.103)" fill="#f25a38"/> -->
    <!-- stralen -->
    <path id="Path_373" class="one" data-name="Path 373" d="M56.3,34.82V13.649a3.649,3.649,0,0,0-7.3,0V34.82a3.649,3.649,0,0,0,7.3,0Z" transform="translate(98.378 0)" fill="#f25a38"/>
    <path id="Path_374" class="one" data-name="Path 374" d="M39.473,12.087a3.649,3.649,0,0,0-2.345,4.6l6.543,20.134a3.649,3.649,0,0,0,6.942-2.252L44.07,14.431A3.652,3.652,0,0,0,39.473,12.087Z" transform="translate(67.895 5.055)" fill="#f25a38"/>
    <path id="Path_375" class="one" data-name="Path 375" d="M27.583,18.144a3.647,3.647,0,0,0-.805,5.1L39.221,40.367a3.648,3.648,0,1,0,5.9-4.291L32.679,18.95A3.65,3.65,0,0,0,27.583,18.144Z" transform="translate(40.461 19.73)" fill="#f25a38"/>
    <path id="Path_376" class="one" data-name="Path 376" d="M18.15,27.579a3.647,3.647,0,0,0,.805,5.1L36.082,45.119a3.648,3.648,0,0,0,4.291-5.9L23.246,26.774A3.639,3.639,0,0,0,18.15,27.579Z" transform="translate(19.731 40.582)" fill="#f25a38"/>
    <path id="Path_377" class="one" data-name="Path 377" d="M12.092,39.468a3.649,3.649,0,0,0,2.345,4.6l20.134,6.543a3.649,3.649,0,1,0,2.252-6.942L16.689,37.123A3.654,3.654,0,0,0,12.092,39.468Z" transform="translate(5.056 68.103)" fill="#f25a38"/>
    <path id="Path_378" class="one" data-name="Path 378" d="M13.653,56.294H34.824a3.649,3.649,0,1,0,0-7.3H13.653a3.649,3.649,0,0,0,0,7.3Z" transform="translate(0 98.668)" fill="#f25a38"/>
    <path id="Path_379" class="one" data-name="Path 379" d="M12.092,70.571a3.649,3.649,0,0,0,4.6,2.345l20.134-6.543a3.649,3.649,0,0,0-2.252-6.942L14.437,65.974A3.649,3.649,0,0,0,12.092,70.571Z" transform="translate(5.056 124.482)" fill="#f25a38"/>
    <path id="Path_380" class="one" data-name="Path 380" d="M21.1,88.248a3.634,3.634,0,0,0,2.142-.7L40.373,75.106a3.648,3.648,0,0,0-4.291-5.9L18.956,81.649a3.649,3.649,0,0,0,2.149,6.6Z" transform="translate(19.731 147.717)" fill="#f25a38"/>
    <path id="Path_381" class="one" data-name="Path 381" d="M39.221,77.356,26.777,94.482a3.648,3.648,0,1,0,5.9,4.291L45.123,81.646a3.648,3.648,0,0,0-5.9-4.291Z" transform="translate(40.461 165.171)" fill="#f25a38"/>
    <path id="Path_382" class="one" data-name="Path 382" d="M43.671,83.09l-6.543,20.134a3.649,3.649,0,1,0,6.942,2.252l6.543-20.134a3.649,3.649,0,1,0-6.942-2.252Z" transform="translate(67.895 177.661)" fill="#f25a38"/>
    <path id="Path_383" class="one" data-name="Path 383" d="M49,85.84v21.168a3.649,3.649,0,1,0,7.3,0V85.84a3.649,3.649,0,0,0-7.3,0Z" transform="translate(98.378 181.967)" fill="#f25a38"/>
    <path id="Path_384" class="one" data-name="Path 384" d="M61.782,80.746a3.649,3.649,0,0,0-2.345,4.6l6.543,20.134a3.649,3.649,0,1,0,6.942-2.252L66.379,83.091A3.65,3.65,0,0,0,61.782,80.746Z" transform="translate(124.108 177.66)" fill="#f25a38"/>
    <path id="Path_385" class="one" data-name="Path 385" d="M70.014,76.548a3.647,3.647,0,0,0-.805,5.1L81.653,98.771a3.648,3.648,0,0,0,5.9-4.291L75.11,77.354A3.646,3.646,0,0,0,70.014,76.548Z" transform="translate(147.261 165.173)" fill="#f25a38"/>
    <path id="Path_386" class="one" data-name="Path 386" d="M76.553,70.012a3.647,3.647,0,0,0,.805,5.1L94.485,87.552a3.648,3.648,0,0,0,4.291-5.9L81.649,69.207A3.64,3.64,0,0,0,76.553,70.012Z" transform="translate(164.591 147.715)" fill="#f25a38"/>
    <path id="Path_387" class="one" data-name="Path 387" d="M104.354,73.094a3.649,3.649,0,0,0,1.126-7.12L85.346,59.431a3.649,3.649,0,1,0-2.252,6.942l20.134,6.543A3.642,3.642,0,0,0,104.354,73.094Z" transform="translate(177.08 124.482)" fill="#f25a38"/>
    <path id="Path_388" class="one" data-name="Path 388" d="M110.664,52.645A3.647,3.647,0,0,0,107.015,49H85.843a3.649,3.649,0,0,0,0,7.3h21.171A3.647,3.647,0,0,0,110.664,52.645Z" transform="translate(181.386 98.668)" fill="#f25a38"/>
    <path id="Path_389" class="one" data-name="Path 389" d="M103.228,37.124,83.094,43.666a3.649,3.649,0,1,0,2.252,6.942l20.134-6.543a3.649,3.649,0,1,0-2.252-6.942Z" transform="translate(177.08 68.102)" fill="#f25a38"/>
    <path id="Path_390" class="one" data-name="Path 390" d="M99.581,27.579a3.644,3.644,0,0,0-5.1-.805L77.358,39.217a3.648,3.648,0,1,0,4.291,5.9L98.775,32.675A3.647,3.647,0,0,0,99.581,27.579Z" transform="translate(164.591 40.583)" fill="#f25a38"/>
    <path id="Path_391" class="one" data-name="Path 391" d="M81.653,18.952,69.209,36.078a3.648,3.648,0,1,0,5.9,4.291L87.554,23.242a3.648,3.648,0,0,0-5.9-4.291Z" transform="translate(147.261 19.728)" fill="#f25a38"/>
    <path id="Path_392" class="one" data-name="Path 392" d="M70.577,12.086a3.654,3.654,0,0,0-4.6,2.345L59.437,34.565a3.649,3.649,0,1,0,6.942,2.252l6.543-20.134A3.649,3.649,0,0,0,70.577,12.086Z" transform="translate(124.108 5.056)" fill="#f25a38"/>
    <!-- eye -->
    <!-- <path id="Path_393" data-name="Path 393" d="M29.224,80.006a3.027,3.027,0,0,0,0,3.587c1.315,1.815,32.643,44.469,72.446,44.469S172.8,85.408,174.116,83.593a3.027,3.027,0,0,0,0-3.587c-1.315-1.815-32.643-44.472-72.446-44.472S30.539,78.191,29.224,80.006ZM167.072,81.8c-6.333,7.988-33.611,39.864-65.4,39.864S42.6,89.788,36.268,81.8c6.333-7.988,33.611-39.867,65.4-39.867S160.739,73.811,167.072,81.8Z" transform="translate(49.357 69.514)" fill="#f25a38"/>
    <path id="Path_394" data-name="Path 394" d="M42.363,70.227A27.867,27.867,0,1,0,70.23,42.359,27.9,27.9,0,0,0,42.363,70.227Zm48.436,0A20.569,20.569,0,1,1,70.23,49.658,20.59,20.59,0,0,1,90.8,70.227Z" transform="translate(80.796 81.087)" fill="#f25a38"/> -->
  </g>
</svg>
