<svg xmlns="http://www.w3.org/2000/svg" width="156.497" height="156.507" viewBox="0 0 156.497 156.507">
  <g id="noun-flower-1091586" transform="translate(-214.286 -214.311)">
    <path id="Path_402" data-name="Path 402" d="M358.132,297.139a43.952,43.952,0,0,0-5.369-4.561,43.423,43.423,0,0,0,5.369-4.57,43.166,43.166,0,1,0-65.615-55.675,43.833,43.833,0,0,0-4.563-5.373A43.172,43.172,0,1,0,226.9,288.013a41.748,41.748,0,0,0,5.382,4.553,43.923,43.923,0,0,0-5.382,4.578,43.173,43.173,0,0,0,30.568,73.663h0a42.823,42.823,0,0,0,30.475-12.616,44.079,44.079,0,0,0,4.579-5.38,41.861,41.861,0,0,0,4.553,5.38,43.17,43.17,0,1,0,61.052-61.052Zm-2.544,58.446a39.569,39.569,0,0,1-55.934.03,37.264,37.264,0,0,1-5.549-7.039,1.824,1.824,0,0,0-1.544-.88h-.015a1.828,1.828,0,0,0-1.544.852,40.268,40.268,0,0,1-5.634,7.067,39.188,39.188,0,0,1-27.9,11.547h0a39.526,39.526,0,0,1-27.991-67.44,40.4,40.4,0,0,1,7.065-5.634,1.822,1.822,0,0,0-.026-3.1,37.183,37.183,0,0,1-7.037-5.547,39.6,39.6,0,0,1,.03-55.932,39.522,39.522,0,0,1,55.871.032,40.227,40.227,0,0,1,5.6,7.031,1.822,1.822,0,0,0,1.544.855h0a1.811,1.811,0,0,0,1.542-.859,39.522,39.522,0,1,1,54.462,54.465,1.821,1.821,0,0,0,0,3.09,40.259,40.259,0,0,1,7.031,5.6,39.522,39.522,0,0,1,.036,55.867Z" transform="translate(0 0)" fill="#f25a38"/>
    <path id="Path_403" data-name="Path 403" d="M264.534,246.235a18.191,18.191,0,0,0-12.949,5.349,18.4,18.4,0,0,0,13,31.392h0a18.37,18.37,0,0,0-.054-36.741ZM275,275a14.633,14.633,0,0,1-10.414,4.332h0A14.719,14.719,0,1,1,275,275Z" transform="translate(27.968 27.967)" fill="#f25a38"/>
  </g>
</svg>
