<svg xmlns="http://www.w3.org/2000/svg" width="176.328" height="162.544" viewBox="0 0 176.328 162.544">
  <path id="noun-handshake-617750" d="M180.392,57.665a54.6,54.6,0,0,0-20.461-36.413,52.588,52.588,0,0,0-39.344-10.735c-10.6,1.544-19.6,5.486-26.767,11.722a111.648,111.648,0,0,0-10.387-7.25C60.358,2.173,31.929,7.376,15.84,27.344,4.936,40.761,1.832,57.152,6.615,76.063a67.147,67.147,0,0,0,18.9,31.537,17.025,17.025,0,0,0,5.522,13.276,16.026,16.026,0,0,0,10.673,4.47,16.051,16.051,0,0,0,4.843,10.927,15.583,15.583,0,0,0,10.815,4.319A17.513,17.513,0,0,0,62.465,152a22.241,22.241,0,0,0,12.351,5.569c1.6,6.759,4.547,10.43,9.683,12.146a16.764,16.764,0,0,0,5.184.828,14.441,14.441,0,0,0,9.795-3.713c.329-.333.929-.894,1.711-1.625,6.49-6.078,12.628-12.233,14.8-16.873,4.166,1.734,10.064,1.784,13.56-.927a13.123,13.123,0,0,0,5.3-12.792,15.6,15.6,0,0,0,12.2-3.812,14.057,14.057,0,0,0,3.607-12.3c3.795.252,9.145-.379,13.251-4.719,4.034-4.257,3.367-9.766,2.56-12.438C177.174,88.919,182.24,73.064,180.392,57.665ZM33.674,118.046A13.169,13.169,0,0,1,29.4,107.673L48.429,89.25c2.014-1.5,8.477-4.232,13.319,1.573,4.458,5.356,1.774,10.275,1.25,11.122L42.858,121.4A11.8,11.8,0,0,1,33.674,118.046ZM49.22,133.47a12.409,12.409,0,0,1-3.609-9.354l20.064-19.375c1.066-.6,7.684-4.048,11.881.1,4.236,4.189,3.069,9.888,2.637,11.469L58.638,136.64A11.772,11.772,0,0,1,49.22,133.47Zm12.043,6.012,21.579-20.356c1.711-.36,8.15-1.37,11.738,2.875,2.73,3.231,2.024,8.514,1.734,10.1L75.573,153.7c-3.675-.081-8.05-2.314-10.492-4.555A13.412,13.412,0,0,1,61.264,139.482Zm37.278,22.9c-.83.774-1.467,1.372-1.724,1.641-4.365,3.864-9.592,2.529-11.089,2.024-3.849-1.287-5.975-4.183-7.227-9.807l20.811-21.67c3.638-2.274,8.673.507,10.507,2.744,2.347,2.873,2.974,7.088,3.1,8.131C112.266,149.523,101.957,159.182,98.541,162.381Zm62.556-51.26c-4.029,4.259-9.876,3.744-12.587,3.2L113.557,79.062a1.936,1.936,0,0,0-2.75,2.726l35.2,35.515c2.09,3.067.836,8.264-1.676,10.741-2.264,2.233-7.978,4.009-11.223,1.894a1.524,1.524,0,0,0-.153-.068L97.3,93.319a1.935,1.935,0,0,0-2.771,2.7l35.917,36.807c1.31,3.738.855,8.568-3.2,11.473-2.572,1.991-7.649,1.652-10.569.043a20.4,20.4,0,0,0-3.858-9.482c-2.485-3.036-7.614-5.753-12.365-4.841.164-2.984-.192-7.293-2.912-10.517-3.87-4.576-9.652-4.863-13.156-4.524a15.016,15.016,0,0,0-4.106-12.893c-3.92-3.876-8.843-3.5-12.345-2.467a13.51,13.51,0,0,0-3.208-11.273c-6.115-7.337-14.737-5.184-18.737-2.1a1.892,1.892,0,0,0-.164.143l-18.3,17.723A63.036,63.036,0,0,1,10.367,75.117C5.838,57.2,8.61,42.377,18.847,29.78c14.913-18.5,41.283-23.3,62.705-11.407a104.845,104.845,0,0,1,9.416,6.562L60.312,54.944c-.192.161-4.683,3.98-4.721,9.209-.021,3.042,1.42,5.838,4.286,8.307,8.947,7.713,22.494,6.738,32.208-2.32,4.53-4.218,16.053-15.523,20.039-19.439l50.509,51.351C163.085,103.219,164.186,107.863,161.1,111.121ZM113.526,46.606a1.937,1.937,0,0,0-1.364-.579h-.015a1.929,1.929,0,0,0-1.358.557c-.157.157-15.89,15.644-21.343,20.722C81.2,75,69.828,75.927,62.4,69.528c-1.96-1.691-2.951-3.483-2.943-5.331.014-3.427,3.307-6.264,3.446-6.387l32.33-31.643c6.774-6.327,15.492-10.3,25.869-11.815A48.723,48.723,0,0,1,157.537,24.3a50.7,50.7,0,0,1,19.007,33.822c1.683,14.027-2.819,28.479-12.388,39.965Z" transform="translate(-4.437 -7.999)" fill="#f25a38"/>
</svg>
