<?xml version="1.0" encoding="UTF-8"?>
<svg width="161px" height="161px" viewBox="0 0 161 161" version="1.1" xmlns="http://www.w3.org/2000/svg" xmlns:xlink="http://www.w3.org/1999/xlink">
    <title>value</title>
    <g id="Page-1" stroke="none" stroke-width="1" fill="none" fill-rule="evenodd">
        <g id="value" fill="#F25A38" fill-rule="nonzero">
            <path d="M77.9508763,0.0148360235 C76.9920131,0.134569881 76.2843135,0.968256481 76.3218763,1.93383602 L76.3218763,11.233836 L67.0128763,11.233836 C66.3057212,11.1661623 65.6213362,11.5052345 65.2467608,12.1088414 C64.8721854,12.7124484 64.8721854,13.4762237 65.2467608,14.0798306 C65.6213362,14.6834376 66.3057212,15.0225097 67.0128763,14.954836 L76.3218763,14.954836 L76.3218763,24.254836 C76.3218763,25.2831902 77.1555221,26.116836 78.1838763,26.116836 C79.2122305,26.116836 80.0458763,25.2831902 80.0458763,24.254836 L80.0458763,14.954836 L89.3548763,14.954836 C90.0298519,14.9704856 90.6603615,14.6193388 91.0024479,14.0372616 C91.3445343,13.4551845 91.3445343,12.7334876 91.0024479,12.1514104 C90.6603615,11.5693332 90.0298519,11.2181865 89.3548763,11.233836 L80.0458763,11.233836 L80.0458763,1.93383602 C80.0672868,1.38711343 79.8470229,0.858669732 79.4436472,0.48900497 C79.0402715,0.119340209 78.4946596,-0.054086013 77.9518763,0.0148360235 L77.9508763,0.0148360235 Z M9.29787628,29.836836 C7.69165767,29.801256 6.1180318,30.2930141 4.81787628,31.236836 C3.66362566,32.1458663 2.77864495,33.3519982 2.25787628,34.725836 C1.14687628,37.434836 0.847876281,40.725836 0.628876281,44.085836 C0.628876281,44.105836 0.628876281,44.124836 0.628876281,44.143836 C-0.039274234,53.8577868 -0.17514419,63.6010314 0.221876281,73.329836 C0.879876281,89.462836 3.16387628,108.637836 10.5218763,121.294836 C17.6798763,133.611836 24.7878763,141.107836 32.3978763,146.585836 C36.1128763,149.259836 38.3978763,150.679836 39.4978763,151.992836 C40.5978763,153.305836 40.9528763,154.658836 40.9528763,158.213836 C40.9528762,158.707577 41.1490826,159.181081 41.4983041,159.530115 C41.8475256,159.879149 42.3211352,160.074836 42.8148763,160.074836 L79.6978763,160.074836 C79.7558763,160.074836 79.8142096,160.074836 79.8728763,160.074836 L80.0478763,160.074836 C80.1058763,160.074836 80.1642096,160.074836 80.2228763,160.074836 L117.283876,160.074836 C117.777444,160.074836 118.250902,159.879287 118.600095,159.530469 C118.949288,159.181651 119.145611,158.708404 119.145876,158.214836 C119.145876,154.659836 119.501876,153.306836 120.599876,151.993836 C121.697876,150.680836 123.982876,149.260836 127.699876,146.586836 C135.308876,141.109836 142.417876,133.612836 149.575876,121.295836 C156.931876,108.637836 159.215876,89.462836 159.875876,73.330836 C160.272899,63.6020314 160.137029,53.8587867 159.468876,44.144836 C159.468876,44.124836 159.468876,44.105836 159.468876,44.086836 C159.249876,40.724836 158.950876,37.435836 157.839876,34.726836 C157.319108,33.3529982 156.434127,32.1468663 155.279876,31.237836 C153.979754,30.2939474 152.406105,29.8021821 150.799876,29.837836 C142.769876,29.837836 137.615876,33.721836 136.021876,38.500836 C134.914876,41.820836 134.511876,47.345836 134.276876,52.279836 C134.102876,55.933836 134.113876,57.633836 134.101876,59.079836 C128.589385,57.0441456 122.408327,59.2167539 119.381876,64.253836 L102.567876,94.311836 C100.995876,97.119836 96.6438763,99.711836 91.9788763,102.911836 C87.3138763,106.111836 82.3428763,110.111836 80.1678763,116.632836 C80.1278763,116.753836 80.0898763,116.912836 80.0518763,117.039836 C80.0138763,116.911836 79.9758763,116.753836 79.9358763,116.632836 C77.7618763,110.113836 72.7908763,106.113836 68.1248763,102.911836 C63.4588763,99.709836 59.1078763,97.111836 57.5358763,94.311836 L40.7218763,64.253836 C37.6935079,59.2166988 31.5103209,57.0460323 25.9978763,59.084836 C25.9858763,57.636836 25.9978763,55.935836 25.8228763,52.284836 C25.5878763,47.350836 25.1848763,41.825836 24.0778763,38.505836 C22.4818763,33.724836 17.3278763,29.836836 9.29787628,29.836836 Z M53.7478763,33.499836 C52.7890131,33.6195699 52.0813135,34.4532565 52.1188763,35.418836 L52.1188763,44.718836 L42.8098763,44.718836 C42.1027212,44.6511623 41.4183362,44.9902345 41.0437608,45.5938414 C40.6691854,46.1974484 40.6691854,46.9612237 41.0437608,47.5648306 C41.4183362,48.1684376 42.1027212,48.5075097 42.8098763,48.439836 L52.1188763,48.439836 L52.1188763,57.739836 C52.1188763,58.7681902 52.9525221,59.601836 53.9808763,59.601836 C55.0092305,59.601836 55.8428763,58.7681902 55.8428763,57.739836 L55.8428763,48.439836 L65.1518763,48.439836 C66.1794021,48.439836 67.0123763,47.6068618 67.0123763,46.579336 C67.0123763,45.5518102 66.1794021,44.718836 65.1518763,44.718836 L55.8428763,44.718836 L55.8428763,35.418836 C55.8643323,34.8719156 55.6439366,34.3432816 55.2403259,33.9735781 C54.8367152,33.6038746 54.2908199,33.4305933 53.7478763,33.499836 L53.7478763,33.499836 Z M105.877876,33.499836 C104.919013,33.6195699 104.211314,34.4532565 104.248876,35.418836 L104.248876,44.718836 L94.9398763,44.718836 C94.2327212,44.6511623 93.5483362,44.9902345 93.1737608,45.5938414 C92.7991854,46.1974484 92.7991854,46.9612237 93.1737608,47.5648306 C93.5483362,48.1684376 94.2327212,48.5075097 94.9398763,48.439836 L104.248876,48.439836 L104.248876,57.739836 C104.248876,58.7681902 105.082522,59.601836 106.110876,59.601836 C107.13923,59.601836 107.972876,58.7681902 107.972876,57.739836 L107.972876,48.439836 L117.281876,48.439836 C118.309402,48.439836 119.142376,47.6068618 119.142376,46.579336 C119.142376,45.5518102 118.309402,44.718836 117.281876,44.718836 L107.972876,44.718836 L107.972876,35.418836 C107.994287,34.8721134 107.774023,34.3436697 107.370647,33.974005 C106.967271,33.6043402 106.42166,33.430914 105.878876,33.499836 L105.877876,33.499836 Z M9.29887628,33.5567213 C16.1628763,33.5567213 19.5468763,36.605836 20.5858763,39.720836 C21.3398763,41.981836 21.8678763,47.620836 22.0988763,52.453836 C22.3298763,57.286836 22.3318763,61.465836 22.3318763,61.465836 C22.3318763,61.484836 22.3318763,61.504836 22.3318763,61.523836 C18.8118072,65.2792002 18.1511826,70.8906564 20.7028763,75.360836 L20.7028763,75.418836 L46.7678763,121.872836 C47.2815319,122.737402 48.3888739,123.037893 49.269108,122.551576 C50.1493422,122.065258 50.4843776,120.967874 50.0258763,120.072836 L23.9608763,73.560836 C21.8608763,69.946836 22.7998763,64.805836 26.2878763,62.804836 C29.7198763,60.835836 35.5088763,62.579836 37.4588763,66.060836 L54.3308763,96.118836 C56.7238763,100.392836 61.5418763,102.925836 66.0248763,106.002836 C70.5078763,109.079836 74.6608763,112.532836 76.4388763,117.863836 C77.1558763,120.011836 77.7198763,126.646836 77.9518763,134.263836 C78.1648763,141.284836 78.1828763,149.250836 78.1848763,156.356836 L44.4978763,156.356836 C44.2978763,153.556836 43.7548763,151.297836 42.3448763,149.612836 C40.6138763,147.543836 38.1698763,146.173836 34.5448763,143.566836 C27.3448763,138.384836 20.7268763,131.401836 13.7748763,119.438836 C7.08587628,107.928836 4.58987628,89.038836 3.94287628,73.159836 C3.55269954,63.5666041 3.68856995,53.9591976 4.34987628,44.380836 C4.40285241,41.5977093 4.8534097,38.8364464 5.68787628,36.180836 C5.9688187,35.4082183 6.45237153,34.7253726 7.08787628,34.203836 C7.72617089,33.7361757 8.50951242,33.5097826 9.29887628,33.564836 L9.29887628,33.5567213 Z M150.793876,33.557836 C151.58324,33.5027826 152.366582,33.7291757 153.004876,34.196836 C153.640381,34.7183726 154.123934,35.4012183 154.404876,36.173836 C155.23933,38.8294495 155.689886,41.5907105 155.742876,44.373836 C156.404173,53.952198 156.540043,63.559604 156.149876,73.152836 C155.502876,89.032836 153.006876,107.921836 146.316876,119.431836 C139.364876,131.395836 132.745876,138.377836 125.546876,143.559836 C121.924876,146.166836 119.481876,147.536836 117.746876,149.606836 C116.336876,151.291836 115.793876,153.551836 115.593876,156.350836 L81.9068763,156.350836 C81.9068763,149.244836 81.9258763,141.278836 82.1398763,134.257836 C82.3708763,126.645836 82.9398763,120.010836 83.6528763,117.857836 C85.4308763,112.527836 89.5838763,109.073836 94.0668763,105.996836 C98.5498763,102.919836 103.366876,100.386836 105.760876,96.112836 L122.632876,66.054836 C124.581876,62.573836 130.370876,60.830836 133.803876,62.798836 C137.291876,64.798836 138.231876,69.940836 136.130876,73.554836 L110.065876,120.066836 C109.607375,120.961874 109.94241,122.059258 110.822645,122.545576 C111.702879,123.031893 112.810221,122.731402 113.323876,121.866836 L139.388876,75.412836 L139.388876,75.354836 C141.94057,70.8846564 141.279945,65.2732002 137.759876,61.517836 C137.750876,61.508836 137.768876,61.468836 137.759876,61.459836 C137.750876,61.450836 137.759876,57.281836 137.992876,52.447836 C138.225876,47.613836 138.750876,41.975836 139.505876,39.714836 C140.544876,36.599836 143.928876,33.551836 150.792876,33.551836 L150.793876,33.557836 Z M79.8138763,66.987836 C78.8550131,67.1075699 78.1473135,67.9412565 78.1848763,68.906836 L78.1848763,78.206836 L68.8748763,78.206836 C68.7587893,78.1961291 68.6419633,78.1961291 68.5258763,78.206836 C67.8515972,78.2572286 67.257114,78.6678782 66.9713228,79.2806711 C66.6855316,79.893464 66.7530026,80.6128324 67.1477572,81.1617956 C67.5425119,81.7107587 68.2029865,82.0037033 68.8748763,81.927836 L78.1838763,81.927836 L78.1838763,91.227836 C78.1838763,92.2561902 79.0175221,93.089836 80.0458763,93.089836 C81.0742305,93.089836 81.9078763,92.2561902 81.9078763,91.227836 L81.9078763,81.927836 L91.2168763,81.927836 C92.2444021,81.927836 93.0773763,81.0948618 93.0773763,80.067336 C93.0773763,79.0398102 92.2444021,78.206836 91.2168763,78.206836 L81.9068763,78.206836 L81.9068763,68.906836 C81.9282868,68.3601134 81.7080229,67.8316697 81.3046472,67.462005 C80.9012715,67.0923402 80.3556596,66.918914 79.8128763,66.987836 L79.8138763,66.987836 Z" id="Path_408"></path>
        </g>
    </g>
</svg>